<svg width="152" height="152" viewBox="0 0 152 152" fill="none" xmlns="http://www.w3.org/2000/svg">
<path fill-rule="evenodd" clip-rule="evenodd" d="M34.5323 0.510281L145.343 6.64557e-05C148.721 -0.0154871 151.472 2.7011 151.488 6.06767L152 117.241C152.015 120.618 149.273 123.364 145.884 123.364H123.556V145.394C123.556 148.75 120.835 151.474 117.468 151.49L6.65664 152C3.27865 152.016 0.527612 149.299 0.512108 145.932L6.58285e-05 34.7595C-0.0154886 31.3821 2.72741 28.6359 6.11635 28.6359L28.4442 28.6359V6.60586C28.4442 3.25032 31.1654 0.525784 34.5323 0.510281ZM28.5589 28.7172L28.5058 117.184C28.5038 120.552 31.2428 123.283 34.6222 123.283H123.441L123.494 34.8164C123.496 31.4485 120.757 28.7172 117.378 28.7172H28.5589Z" fill="white"/>
</svg>
