<svg width="157" height="236" viewBox="0 0 157 236" fill="none" xmlns="http://www.w3.org/2000/svg">
<path fill-rule="evenodd" clip-rule="evenodd" d="M37.5323 0.510281L148.343 6.64557e-05C151.721 -0.0154871 154.472 2.7011 154.488 6.06767L155 117.241C155.015 120.618 152.273 123.364 148.884 123.364H126.556V145.394C126.556 148.75 123.835 151.474 120.468 151.49L9.65664 152C6.27865 152.016 3.52761 149.299 3.51211 145.932L3.00007 34.7595C2.98451 31.3821 5.72741 28.6359 9.11635 28.6359L31.4442 28.6359V6.60586C31.4442 3.25032 34.1654 0.525784 37.5323 0.510281ZM31.5589 28.7172L31.5058 117.184C31.5038 120.552 34.2428 123.283 37.6222 123.283H126.441L126.494 34.8164C126.496 31.4485 123.757 28.7172 120.378 28.7172H31.5589Z" fill="white"/>
<g clip-path="url(#clip0_2500_6990)">
<path d="M23.7081 191.024H16.4211C12.0704 191.024 7.8974 192.754 4.81857 195.834C1.73974 198.915 0.0067038 203.093 0 207.452V219.571C0.0067038 223.93 1.73974 228.109 4.81857 231.189C7.8974 234.269 12.0704 235.999 16.4211 235.999H23.7081C24.5805 235.999 25.4171 235.652 26.034 235.034C26.6509 234.416 26.9974 233.577 26.9974 232.703V227.43H16.4211C14.3408 227.43 12.3458 226.602 10.8748 225.128C9.40383 223.654 8.57743 221.655 8.57743 219.571V207.452C8.57743 205.368 9.40383 203.369 10.8748 201.895C12.3458 200.421 14.3408 199.593 16.4211 199.593H27.0733V194.32C27.0734 193.881 26.9859 193.446 26.8159 193.041C26.6459 192.636 26.3968 192.269 26.0832 191.962C25.7697 191.655 25.3981 191.414 24.9902 191.253C24.5823 191.092 24.1464 191.014 23.7081 191.024Z" fill="white"/>
<path d="M142.45 227.431V191.102H137.162C136.288 191.102 135.448 191.448 134.827 192.065C134.206 192.683 133.854 193.521 133.848 194.397V236H153.71C154.582 236 155.419 235.653 156.036 235.035C156.653 234.417 156.999 233.578 156.999 232.704V227.431H142.45Z" fill="white"/>
<path d="M104.018 191.025H96.4271C95.5547 191.025 94.7181 191.373 94.1012 191.991C93.4844 192.609 93.1378 193.447 93.1378 194.321V199.392H88.381C87.5063 199.392 86.667 199.738 86.0461 200.355C85.4252 200.973 85.0731 201.811 85.0664 202.687V232.577C85.0664 233.452 85.413 234.29 86.0298 234.908C86.6467 235.526 87.4833 235.873 88.3557 235.873H104.018C108.368 235.873 112.541 234.143 115.62 231.063C118.699 227.983 120.432 223.804 120.439 219.445V207.327C120.399 202.989 118.651 198.843 115.576 195.791C112.501 192.738 108.347 191.025 104.018 191.025ZM104.018 199.594C106.098 199.594 108.093 200.422 109.564 201.896C111.035 203.37 111.861 205.369 111.861 207.454V219.572C111.861 221.656 111.035 223.655 109.564 225.129C108.093 226.603 106.098 227.431 104.018 227.431H93.2643V199.544L104.018 199.594Z" fill="white"/>
<path d="M58.4235 191H53.5402C49.1827 191 45.0033 192.733 41.9197 195.818C38.8361 198.902 37.1005 203.087 37.0938 207.454V219.572C37.1005 223.931 38.8335 228.11 41.9123 231.19C44.9912 234.27 49.1641 236 53.5149 236H58.4235C62.7743 236 66.9472 234.27 70.026 231.19C73.1048 228.11 74.8379 223.931 74.8446 219.572V207.454C74.8379 203.092 73.1057 198.911 70.0276 195.827C66.9495 192.742 62.7766 191.007 58.4235 191ZM66.2418 219.572C66.2419 221.652 65.419 223.647 63.9534 225.12C62.4879 226.593 60.4994 227.424 58.4235 227.431H53.5149C51.4346 227.431 49.4395 226.603 47.9685 225.129C46.4976 223.655 45.6712 221.656 45.6712 219.572V207.454C45.6712 205.369 46.4976 203.37 47.9685 201.896C49.4395 200.422 51.4346 199.594 53.5149 199.594H58.4235C60.4994 199.601 62.4879 200.432 63.9534 201.905C65.419 203.378 66.2419 205.374 66.2418 207.454V219.572Z" fill="white"/>
</g>
<defs>
<clipPath id="clip0_2500_6990">
<rect width="157" height="45" fill="white" transform="translate(0 191)"/>
</clipPath>
</defs>
</svg>
