<svg width="157" height="45" viewBox="0 0 157 45" fill="none" xmlns="http://www.w3.org/2000/svg">
<g clip-path="url(#clip0_2500_6992)">
<path d="M23.7081 0.0243153H16.4211C12.0704 0.0243101 7.8974 1.75432 4.81857 4.83447C1.73974 7.91462 0.0067038 12.0931 0 16.4525V28.5708C0.0067038 32.9301 1.73974 37.1086 4.81857 40.1888C7.8974 43.2689 12.0704 44.9989 16.4211 44.9989H23.7081C24.5805 44.9989 25.4171 44.6517 26.034 44.0337C26.6509 43.4156 26.9974 42.5773 26.9974 41.7032V36.43H16.4211C14.3408 36.43 12.3458 35.6019 10.8748 34.128C9.40383 32.6542 8.57743 30.6552 8.57743 28.5708V16.4525C8.57743 14.3681 9.40383 12.3691 10.8748 10.8952C12.3458 9.42133 14.3408 8.5933 16.4211 8.5933H27.0733V3.32006C27.0734 2.88078 26.9859 2.4459 26.8159 2.041C26.6459 1.6361 26.3968 1.26935 26.0832 0.962292C25.7697 0.655236 25.3981 0.4141 24.9902 0.253017C24.5823 0.0919331 24.1464 0.014178 23.7081 0.0243153Z" fill="white"/>
<path d="M142.45 36.4312V0.101563H137.162C136.288 0.101537 135.448 0.447944 134.827 1.0653C134.206 1.68266 133.854 2.52093 133.848 3.39735V45.0001H153.71C154.582 45.0001 155.419 44.6529 156.036 44.0349C156.653 43.4168 156.999 42.5785 156.999 41.7044V36.4312H142.45Z" fill="white"/>
<path d="M104.018 0.0253906H96.4271C95.5547 0.0253906 94.7181 0.372601 94.1012 0.990679C93.4844 1.60876 93.1378 2.44704 93.1378 3.32113V8.39155H88.381C87.5063 8.39153 86.667 8.73797 86.0461 9.35533C85.4252 9.97269 85.0731 10.8109 85.0664 11.6873V41.5775C85.0664 42.4516 85.413 43.2899 86.0298 43.9079C86.6467 44.526 87.4833 44.8733 88.3557 44.8733H104.018C108.368 44.8733 112.541 43.1432 115.62 40.0631C118.699 36.9829 120.432 32.8044 120.439 28.4451V16.3268C120.399 11.9894 118.651 7.8434 115.576 4.79059C112.501 1.73778 108.347 0.0252053 104.018 0.0253906ZM104.018 8.59438C106.098 8.59438 108.093 9.4224 109.564 10.8963C111.035 12.3702 111.861 14.3692 111.861 16.4535V28.5718C111.861 30.6562 111.035 32.6552 109.564 34.1291C108.093 35.603 106.098 36.431 104.018 36.431H93.2643V8.5437L104.018 8.59438Z" fill="white"/>
<path d="M58.4235 0H53.5402C49.1827 -5.16695e-06 45.0033 1.73268 41.9197 4.81758C38.8361 7.90249 37.1005 12.0875 37.0938 16.4535V28.5718C37.1005 32.9312 38.8335 37.1097 41.9123 40.1898C44.9912 43.27 49.1641 45 53.5149 45H58.4235C62.7743 45 66.9472 43.27 70.026 40.1898C73.1048 37.1097 74.8379 32.9312 74.8446 28.5718V16.4535C74.8379 12.0918 73.1057 7.91074 70.0276 4.82656C66.9495 1.74238 62.7766 0.00670514 58.4235 0ZM66.2418 28.5718C66.2419 30.6518 65.419 32.647 63.9534 34.1202C62.4879 35.5933 60.4994 36.4243 58.4235 36.431H53.5149C51.4346 36.431 49.4395 35.603 47.9685 34.1291C46.4976 32.6552 45.6712 30.6562 45.6712 28.5718V16.4535C45.6712 14.3692 46.4976 12.3701 47.9685 10.8963C49.4395 9.42239 51.4346 8.59437 53.5149 8.59437H58.4235C60.4994 8.60107 62.4879 9.43206 63.9534 10.9052C65.419 12.3784 66.2419 14.3735 66.2418 16.4535V28.5718Z" fill="white"/>
</g>
<defs>
<clipPath id="clip0_2500_6992">
<rect width="157" height="45" fill="white"/>
</clipPath>
</defs>
</svg>
