<svg width="56" height="56" viewBox="0 0 56 56" fill="none" xmlns="http://www.w3.org/2000/svg">
<path fill-rule="evenodd" clip-rule="evenodd" d="M56 28C56 43.4641 43.4641 56 28 56C12.536 56 0 43.4641 0 28C0 12.536 12.536 0 28 0C43.4641 0 56 12.536 56 28ZM20.0656 39.1426H14.6316C13.4897 39.1426 12.9257 39.1426 12.5818 38.9226C12.2103 38.6818 11.9834 38.2828 11.9559 37.8425C11.9352 37.4369 12.2172 36.9414 12.7813 35.9509L26.1985 12.3012C26.7695 11.2969 27.0583 10.7948 27.4229 10.6091C27.815 10.4096 28.2827 10.4096 28.6748 10.6091C29.0394 10.7948 29.3283 11.2969 29.8992 12.3012L32.6575 17.1161L32.6715 17.1407C33.2882 18.2181 33.6009 18.7644 33.7374 19.3379C33.8887 19.9638 33.8887 20.6241 33.7374 21.2501C33.5998 21.8279 33.2903 22.3782 32.6643 23.4719L25.6166 35.9303L25.5983 35.9622C24.9776 37.0485 24.6631 37.599 24.2271 38.0144C23.7525 38.4685 23.1816 38.7985 22.5556 38.9845C21.9847 39.1426 21.345 39.1426 20.0656 39.1426ZM33.7883 39.1426H41.5746C42.7233 39.1426 43.3012 39.1426 43.6453 38.9159C44.0167 38.675 44.2504 38.269 44.2713 37.8291C44.2911 37.4365 44.0152 36.9604 43.4746 36.0274C43.4559 35.9957 43.4373 35.9633 43.4183 35.9304L39.518 29.2583L39.4737 29.1832C38.9256 28.2564 38.6489 27.7884 38.2936 27.6075C37.9018 27.408 37.4406 27.408 37.0487 27.6075C36.691 27.7932 36.4021 28.2816 35.8312 29.2652L31.9448 35.9373L31.9315 35.9603C31.3626 36.9424 31.0783 37.4331 31.0988 37.8358C31.1263 38.2761 31.3533 38.6818 31.7247 38.9226C32.0618 39.1426 32.6396 39.1426 33.7883 39.1426Z" fill="#191919"/>
</svg>
