<svg width="38" height="50" viewBox="0 0 38 50" fill="none" xmlns="http://www.w3.org/2000/svg">
<path d="M37.6727 20.1004C38.4587 14.8468 34.4586 12.0225 28.989 10.1384L30.7632 3.02167L26.4312 1.94206L24.7039 8.87129C23.55 8.58778 22.3935 8.3155 21.2343 8.05448L22.974 1.07961L18.6433 0L16.869 7.1143C15.9264 6.89961 15.001 6.68739 14.1028 6.46407L14.1077 6.44186L8.13345 4.95015L6.98105 9.57704C6.98105 9.57704 10.1952 10.3136 10.1273 10.3593C11.8818 10.7973 12.1989 11.9583 12.1459 12.8788L10.1249 20.9863C10.2458 21.0172 10.4025 21.0628 10.5752 21.1307L10.1175 21.0172L7.28457 32.3746C7.06989 32.9077 6.52576 33.7072 5.2981 33.4037C5.34251 33.4666 2.15058 32.6177 2.15058 32.6177L0 37.5777L5.6374 38.9843C6.68616 39.2459 7.71395 39.521 8.72569 39.7801L6.93293 46.9783L11.26 48.0579L13.0343 40.935C14.2163 41.257 15.3637 41.5519 16.4865 41.832L14.7172 48.9204L19.048 50L20.842 42.8154C28.229 44.2133 33.7837 43.6494 36.1218 36.9694C38.0059 31.5899 36.028 28.4868 32.1414 26.4621C34.9719 25.8082 37.1039 23.9463 37.6727 20.1004ZM27.7737 33.9786C26.435 39.3582 17.3774 36.4512 14.4408 35.7208L16.8197 26.1845C19.7562 26.9186 29.1728 28.3696 27.7737 33.9786ZM29.1136 20.0239C27.8921 24.9161 20.3534 22.4299 17.9079 21.8204L20.0647 13.1712C22.5101 13.7807 30.3857 14.9196 29.1136 20.0239Z" fill="white"/>
</svg>
