<svg width="19" height="17" viewBox="0 0 19 17" fill="none" xmlns="http://www.w3.org/2000/svg">
<path d="M0.906455 1.10196L2.00842 0L17.3115 15.3031L16.2095 16.405C16.0674 16.2629 15.6408 15.8541 14.9298 15.1431C14.2189 14.45 13.6679 13.899 13.2947 13.5257C12.1394 14.0234 10.8775 14.2722 9.52666 14.2722C7.39383 14.2722 5.4565 13.6857 3.73246 12.4949C2.00842 11.304 0.764266 9.73994 0 7.80262C0.302152 7.0739 0.764266 6.30963 1.40412 5.4565C2.04397 4.60337 2.64827 3.94574 3.25257 3.5014C2.93265 3.1637 2.47053 2.70159 1.884 2.11506C1.31525 1.52853 0.977549 1.19083 0.906455 1.10196ZM5.66979 5.88307C5.34986 6.52292 5.1899 7.16277 5.1899 7.78484C5.1899 8.97568 5.61646 9.98877 6.4696 10.8419C7.32273 11.695 8.33583 12.1216 9.52666 12.1216C10.1487 12.1216 10.7886 11.9616 11.4284 11.6417L10.0954 10.3087C9.88213 10.3442 9.68662 10.3798 9.52666 10.3798C8.81572 10.3798 8.21141 10.131 7.69598 9.61553C7.19832 9.10009 6.93171 8.49579 6.93171 7.78484C6.93171 7.62488 6.96726 7.42937 7.02058 7.21609L5.66979 5.88307ZM9.52666 3.44808C8.99345 3.44808 8.46024 3.55472 7.94481 3.76801L6.07858 1.91955C7.145 1.51076 8.28251 1.29747 9.52666 1.29747C11.6595 1.29747 13.579 1.884 15.3031 3.07484C17.0094 4.26567 18.2535 5.82975 19 7.76707C18.3424 9.3667 17.3648 10.7175 16.0496 11.855L13.5435 9.34892C13.7568 8.83349 13.8634 8.31805 13.8634 7.76707C13.8634 6.57624 13.4369 5.56314 12.5837 4.71001C11.7306 3.85688 10.7175 3.44808 9.52666 3.44808ZM9.40225 5.1899H9.52666C10.2198 5.1899 10.8419 5.43873 11.3573 5.95416C11.855 6.4696 12.1216 7.0739 12.1216 7.78484V7.94481L9.40225 5.1899Z" fill="#070B0C"/>
</svg>
