<svg width="40" height="43" viewBox="0 0 40 43" fill="none" xmlns="http://www.w3.org/2000/svg">
<path d="M37.9671 29.1993L35.5356 37.5088L30.7623 36.1894L37.9671 29.1993Z" fill="#E2E2E2"/>
<path d="M30.7623 36.1894L35.3662 29.8137L37.9671 29.1993L30.7623 36.1894Z" fill="#E2E2E2"/>
<path d="M34.3896 22.9344L37.9671 29.1993L35.3662 29.8137L34.3896 22.9344ZM34.3896 22.9344L36.6916 21.3228L37.9671 29.1993L34.3896 22.9344Z" fill="#F5F5F5"/>
<path d="M31.4599 18.2004L38.0767 15.4608L37.7479 16.9616L31.4599 18.2004ZM37.5386 18.7645L31.4599 18.2004L37.7479 16.9616L37.5386 18.7645Z" fill="#747474"/>
<path d="M37.5386 18.7645L36.6916 21.3228L31.4599 18.2004L37.5386 18.7645ZM38.864 16.0953L37.7479 16.9616L38.0767 15.4608L38.864 16.0953ZM37.5386 18.7645L37.7479 16.9616L38.6348 17.7069L37.5386 18.7645Z" fill="#747474"/>
<path d="M25.6303 34.1648L27.2845 34.6987L30.7623 36.1894L25.6303 34.1648Z" fill="#DDDDDD"/>
<path d="M36.6916 21.3228L37.5386 18.7645L38.2661 19.3285L36.6916 21.3228ZM36.6916 21.3228L29.8256 19.0364L31.4599 18.2004L36.6916 21.3228Z" fill="#747474"/>
<path d="M33.0942 10.3542L31.4599 18.2004L29.8256 19.0364L33.0942 10.3542Z" fill="#747474"/>
<path d="M38.0767 15.4608L31.4599 18.2004L33.0942 10.3542L38.0767 15.4608Z" fill="#747474"/>
<path d="M33.0942 10.3542L40 9.54843L38.0767 15.4608L33.0942 10.3542Z" fill="#747474"/>
<path d="M36.6916 21.3228L34.3896 22.9344L29.8256 19.0364L36.6916 21.3228Z" fill="#F5F5F5"/>
<path d="M39.701 3.89794L40 9.54843L33.0942 10.3542L39.701 3.89794Z" fill="#747474"/>
<path d="M39.701 3.89794L25.8994 14.0406L25.72 7.16132L39.701 3.89794Z" fill="#DDDDDD"/>
<path d="M15.4559 6.3354L25.72 7.16132L25.8993 14.0406L15.4559 6.3354Z" fill="#F5F5F5"/>
<path d="M29.8256 19.0364L25.8994 14.0406L33.0942 10.3542L29.8256 19.0364Z" fill="#747474"/>
<path d="M29.8256 19.0364L34.3896 22.9344L27.9821 23.6495L29.8256 19.0364Z" fill="#E2E2E2"/>
<path d="M27.9821 23.6495L25.8994 14.0406L29.8256 19.0364L27.9821 23.6495Z" fill="#E2E2E2"/>
<path d="M33.0942 10.3542L25.8994 14.0406L39.701 3.89794L33.0942 10.3542Z" fill="#747474"/>
<path d="M15.5456 36.0282L18.8042 39.4628L14.3697 35.3836L15.5456 36.0282Z" fill="#C0C0C0"/>
<path d="M30.7623 36.1894L32.3069 30.2568L35.3662 29.8137L30.7623 36.1894Z" fill="#CACACA"/>
<path d="M2.33183 19.4997L7.97209 13.5068L3.05928 18.7846L2.33183 19.4997Z" fill="#DDDDDD"/>
<path d="M35.3662 29.8137L32.3069 30.2568L34.3896 22.9344L35.3662 29.8137ZM25.8993 14.0406L20.4086 13.8593L15.4559 6.3354L25.8993 14.0406Z" fill="#F5F5F5"/>
<path d="M34.3896 22.9344L32.3069 30.2568L32.1375 26.6812L34.3896 22.9344Z" fill="#E3E3E3"/>
<path d="M27.9821 23.6495L34.3896 22.9344L32.1375 26.6812L27.9821 23.6495Z" fill="#CACACA"/>
<path d="M20.4086 13.8593L25.8994 14.0406L27.9821 23.6495L20.4086 13.8593Z" fill="#F5F5F5"/>
<path d="M20.4086 13.8593L5.59044 0L15.4559 6.3354L20.4086 13.8593ZM15.4459 38.1333L2.571 42.1622L0 32.2411L15.4459 38.1333Z" fill="#E2E2E2"/>
<path d="M4.24512 21.9775L9.1081 18.1199L13.1838 19.0767L4.24512 21.9775Z" fill="#747474"/>
<path d="M13.1839 19.0767L9.10813 18.1199L11.2905 9.0146L13.1839 19.0767Z" fill="#747474"/>
<path d="M3.05928 18.7846L9.1081 18.1199L4.24512 21.9775L3.05928 18.7846Z" fill="#747474"/>
<path d="M32.1375 26.6812L29.6263 25.402L27.9821 23.6495L32.1375 26.6812Z" fill="#CACACA"/>
<path d="M3.0593 18.7846L2.6308 16.4982L9.10813 18.1199L3.0593 18.7846Z" fill="#747474"/>
<path d="M29.1081 28.2827L29.6263 25.402L32.1375 26.6812L29.1081 28.2827Z" fill="#191919"/>
<path d="M32.3069 30.2568L29.1081 28.2827L32.1375 26.6812L32.3069 30.2568Z" fill="#F5F5F5"/>
<path d="M9.10813 18.1199L2.6308 16.4982L2.10264 14.5744L9.10813 18.1199ZM11.2905 9.0146L9.10813 18.1199L2.10264 14.5744L11.2905 9.0146ZM11.2905 9.0146L20.4086 13.8593L13.1839 19.0767L11.2905 9.0146Z" fill="#747474"/>
<path d="M13.1839 19.0767L20.4086 13.8593L23.6273 23.8006L13.1839 19.0767ZM23.6273 23.8006L13.6423 23.5891L13.1839 19.0767L23.6273 23.8006Z" fill="#E2E2E2"/>
<path d="M4.24512 21.9775L13.1838 19.0767L13.6422 23.5891L4.24512 21.9775ZM27.9821 23.6495L23.6273 23.8006L20.4086 13.8593L27.9821 23.6495Z" fill="#F5F5F5"/>
<path d="M29.6263 25.402L29.1081 28.2827L27.9821 23.6495L29.6263 25.402Z" fill="#CACACA"/>
<path d="M5.59044 0L20.4086 13.8593L11.2905 9.0146L5.59044 0Z" fill="#747474"/>
<path d="M0 32.2411L12.4963 31.7173L15.4459 38.1333L0 32.2411Z" fill="#E2E2E2"/>
<path d="M15.4459 38.1333L12.4963 31.7173L18.6348 31.4151L15.4459 38.1333Z" fill="#CACACA"/>
<path d="M29.1081 28.2827L32.3069 30.2568L34.0708 34.4569L29.1081 28.2827ZM13.6423 23.5891L0 32.2411L4.24514 21.9775L13.6423 23.5891ZM12.4963 31.7173L0 32.2411L13.6423 23.5891L12.4963 31.7173ZM27.9821 23.6495L28.7992 26.651L24.853 26.8827L27.9821 23.6495ZM24.853 26.8827L23.6273 23.8006L27.9821 23.6495L24.853 26.8827Z" fill="#F5F5F5"/>
<path d="M18.8042 39.4628L15.4459 38.1333L27.1251 40.1175L18.8042 39.4628Z" fill="#C0C0C0"/>
<path d="M4.24514 21.9775L2.33183 19.4997L3.05928 18.7846L4.24514 21.9775Z" fill="#747474"/>
<path d="M28.4504 38.647L27.1251 40.1175L15.4459 38.1333L28.4504 38.647Z" fill="#DBDBDB"/>
<path d="M29.0782 35.0411L15.4459 38.1333L18.6348 31.4151L29.0782 35.0411Z" fill="#E2E2E2"/>
<path d="M15.4459 38.1333L29.0782 35.0411L28.4504 38.647L15.4459 38.1333Z" fill="#DBDBDB"/>
<path d="M2.10264 14.5744L1.6542 6.82894L11.2905 9.0146L2.10264 14.5744ZM3.05928 18.7846L1.73392 17.4249L2.63078 16.4982L3.05928 18.7846Z" fill="#747474"/>
<path d="M21.3951 25.7949L23.6273 23.8006L23.3084 28.6755L21.3951 25.7949Z" fill="#CACACA"/>
<path d="M23.6273 23.8006L21.3951 25.7949L18.1465 27.4971L23.6273 23.8006Z" fill="#CACACA"/>
<path d="M34.0708 34.4569L33.4629 34.0037L29.1081 28.2827L34.0708 34.4569Z" fill="#F5F5F5"/>
<path d="M18.1465 27.4971L13.6423 23.5891L23.6273 23.8006L18.1465 27.4971Z" fill="#CACACA"/>
<path d="M23.3084 28.6755L23.6273 23.8006L24.853 26.8827L23.3084 28.6755Z" fill="#E3E3E3"/>
<path d="M1.29546 15.3399L2.10264 14.5744L2.6308 16.4982L1.29546 15.3399Z" fill="#747474"/>
<path d="M23.3084 28.6755L18.1465 27.4971L21.3951 25.7949L23.3084 28.6755Z" fill="#191919"/>
<path d="M11.2905 9.0146L1.6542 6.82894L5.59044 0L11.2905 9.0146Z" fill="#747474"/>
<path d="M27.1251 40.1175L27.6731 41.6283L18.8042 39.4628L27.1251 40.1175Z" fill="#C0C0C0"/>
<path d="M18.6348 31.4151L18.1465 27.4971L23.3084 28.6755L18.6348 31.4151Z" fill="#F5F5F5"/>
<path d="M13.6423 23.5891L18.1465 27.4971L18.6348 31.4151L13.6423 23.5891Z" fill="#E3E3E3"/>
<path d="M24.853 26.8827L28.7992 26.651L33.4629 34.0037L24.853 26.8827ZM13.6423 23.5891L18.6348 31.4151L12.4963 31.7173L13.6423 23.5891Z" fill="#F5F5F5"/>
<path d="M24.853 26.8827L29.7559 34.4267L23.3084 28.6755L24.853 26.8827Z" fill="#E3E3E3"/>
<path d="M23.3084 28.6755L29.7559 34.4267L29.0782 35.0411L23.3084 28.6755Z" fill="#F5F5F5"/>
<path d="M29.0782 35.0411L18.6348 31.4151L23.3084 28.6755L29.0782 35.0411ZM33.4629 34.0037L29.7559 34.4267L24.853 26.8827L33.4629 34.0037Z" fill="#F5F5F5"/>
<path d="M34.4395 37.5491L32.8451 40.7823L27.6731 41.6283L34.4395 37.5491ZM27.6731 41.6283L27.1251 40.1175L28.4504 38.647L27.6731 41.6283Z" fill="#C0C0C0"/>
<path d="M28.4504 38.647L29.427 38.2542L27.6731 41.6283L28.4504 38.647ZM27.6731 41.6283L29.427 38.2542L34.4395 37.5491L27.6731 41.6283Z" fill="#C0C0C0"/>
<path d="M33.4629 34.0037L34.6886 34.7591L30.9616 35.2124L33.4629 34.0037Z" fill="#191919"/>
<path d="M30.9616 35.2124L29.7559 34.4267L33.4629 34.0037L30.9616 35.2124ZM30.5331 35.8066L35.0673 35.2526L34.4395 37.5491L30.5331 35.8066Z" fill="#191919"/>
<path d="M34.4395 37.5491L29.427 38.2542L30.5331 35.8066L34.4395 37.5491ZM29.427 38.2542L28.4504 38.647L29.0782 35.0411L29.427 38.2542ZM29.0782 35.0411L29.7559 34.4267L30.9616 35.2124L29.0782 35.0411ZM34.6886 34.7591L35.0673 35.2526L30.5331 35.8066L34.6886 34.7591Z" fill="#191919"/>
<path d="M30.5331 35.8066L30.9616 35.2124L34.6886 34.7591L30.5331 35.8066ZM29.0782 35.0411L30.5331 35.8066L29.427 38.2542L29.0782 35.0411Z" fill="#191919"/>
<path d="M30.9616 35.2124L30.5331 35.8066L29.0782 35.0411L30.9616 35.2124Z" fill="#191919"/>
</svg>
