<svg width="4" height="26" viewBox="0 0 4 26" fill="none" xmlns="http://www.w3.org/2000/svg">
<path d="M3.83523 23.3161C3.83523 23.8416 3.64702 24.2926 3.2706 24.669C2.89418 25.0455 2.44318 25.2337 1.91761 25.2337C1.39205 25.2337 0.941051 25.0455 0.564631 24.669C0.18821 24.2926 0 23.8416 0 23.3161C0 22.7905 0.18821 22.3395 0.564631 21.9631C0.941051 21.5866 1.39205 21.3984 1.91761 21.3984C2.26562 21.3984 2.58523 21.4872 2.87642 21.6648C3.16761 21.8352 3.40199 22.0661 3.57955 22.3572C3.75 22.6413 3.83523 22.9609 3.83523 23.3161Z" fill="white"/>
<path d="M3.83523 12.6168C3.83523 13.1424 3.64702 13.5934 3.2706 13.9698C2.89418 14.3462 2.44318 14.5344 1.91761 14.5344C1.39205 14.5344 0.941051 14.3462 0.564631 13.9698C0.18821 13.5934 0 13.1424 0 12.6168C0 12.0913 0.18821 11.6403 0.564631 11.2638C0.941051 10.8874 1.39205 10.6992 1.91761 10.6992C2.26562 10.6992 2.58523 10.788 2.87642 10.9656C3.16761 11.136 3.40199 11.3668 3.57955 11.658C3.75 11.9421 3.83523 12.2617 3.83523 12.6168Z" fill="white"/>
<path d="M3.83523 1.91761C3.83523 2.44318 3.64702 2.89418 3.2706 3.2706C2.89418 3.64702 2.44318 3.83523 1.91761 3.83523C1.39205 3.83523 0.941051 3.64702 0.564631 3.2706C0.18821 2.89418 0 2.44318 0 1.91761C0 1.39205 0.18821 0.941051 0.564631 0.564631C0.941051 0.18821 1.39205 0 1.91761 0C2.26562 0 2.58523 0.0887784 2.87642 0.266335C3.16761 0.43679 3.40199 0.667613 3.57955 0.958807C3.75 1.2429 3.83523 1.5625 3.83523 1.91761Z" fill="white"/>
</svg>
