<svg width="26" height="5" viewBox="0 0 26 5" fill="none" xmlns="http://www.w3.org/2000/svg">
<path d="M2.13352 4.17045C1.60795 4.17045 1.15696 3.98224 0.78054 3.60582C0.404119 3.2294 0.215909 2.77841 0.215909 2.25284C0.215909 1.72727 0.404119 1.27628 0.78054 0.899858C1.15696 0.523437 1.60795 0.335227 2.13352 0.335227C2.65909 0.335227 3.11009 0.523437 3.48651 0.899858C3.86293 1.27628 4.05114 1.72727 4.05114 2.25284C4.05114 2.60085 3.96236 2.92045 3.7848 3.21165C3.61435 3.50284 3.38352 3.73722 3.09233 3.91477C2.80824 4.08523 2.48864 4.17045 2.13352 4.17045ZM12.8327 4.17045C12.3072 4.17045 11.8562 3.98224 11.4798 3.60582C11.1033 3.2294 10.9151 2.77841 10.9151 2.25284C10.9151 1.72727 11.1033 1.27628 11.4798 0.899858C11.8562 0.523437 12.3072 0.335227 12.8327 0.335227C13.3583 0.335227 13.8093 0.523437 14.1857 0.899858C14.5621 1.27628 14.7504 1.72727 14.7504 2.25284C14.7504 2.60085 14.6616 2.92045 14.484 3.21165C14.3136 3.50284 14.0827 3.73722 13.7915 3.91477C13.5075 4.08523 13.1879 4.17045 12.8327 4.17045ZM23.532 4.17045C23.0064 4.17045 22.5554 3.98224 22.179 3.60582C21.8026 3.2294 21.6143 2.77841 21.6143 2.25284C21.6143 1.72727 21.8026 1.27628 22.179 0.899858C22.5554 0.523437 23.0064 0.335227 23.532 0.335227C24.0575 0.335227 24.5085 0.523437 24.8849 0.899858C25.2614 1.27628 25.4496 1.72727 25.4496 2.25284C25.4496 2.60085 25.3608 2.92045 25.1832 3.21165C25.0128 3.50284 24.782 3.73722 24.4908 3.91477C24.2067 4.08523 23.8871 4.17045 23.532 4.17045Z" fill="white"/>
</svg>
