<svg width="39" height="34" viewBox="0 0 39 34" fill="none" xmlns="http://www.w3.org/2000/svg">
<path d="M29 10.3C28.3 9.9 27.4 9.9 26.6 10.3L21 13.6L17.2 15.7L11.7 19C11 19.4 10.1 19.4 9.3 19L5 16.4C4.3 16 3.8 15.2 3.8 14.3V9.3C3.8 8.5 4.2 7.7 5 7.2L9.3 4.7C10 4.3 10.9 4.3 11.7 4.7L16 7.3C16.7 7.7 17.2 8.5 17.2 9.4V12.7L21 10.5V7.1C21 6.3 20.6 5.5 19.8 5L11.8 0.3C11.1 -0.1 10.2 -0.1 9.4 0.3L1.2 5.1C0.4 5.5 0 6.3 0 7.1V16.5C0 17.3 0.4 18.1 1.2 18.6L9.3 23.3C10 23.7 10.9 23.7 11.7 23.3L17.2 20.1L21 17.9L26.5 14.7C27.2 14.3 28.1 14.3 28.9 14.7L33.2 17.2C33.9 17.6 34.4 18.4 34.4 19.3V24.3C34.4 25.1 34 25.9 33.2 26.4L29 28.9C28.3 29.3 27.4 29.3 26.6 28.9L22.3 26.4C21.6 26 21.1 25.2 21.1 24.3V21.1L17.3 23.3V26.6C17.3 27.4 17.7 28.2 18.5 28.7L26.6 33.4C27.3 33.8 28.2 33.8 29 33.4L37.1 28.7C37.8 28.3 38.3 27.5 38.3 26.6V17.1C38.3 16.3 37.9 15.5 37.1 15L29 10.3Z" fill="white"/>
</svg>
