<svg width="512" height="512" viewBox="0 0 512 512" fill="none" xmlns="http://www.w3.org/2000/svg">
<g clip-path="url(#clip0_1_2)">
<path d="M256 103.4C158.177 103.4 69.4659 156.92 4.00614 243.851C-1.33538 250.973 -1.33538 260.923 4.00614 268.045C69.4659 355.08 158.177 408.6 256 408.6C353.823 408.6 442.534 355.08 507.994 268.149C513.335 261.027 513.335 251.077 507.994 243.955C442.534 156.92 353.823 103.4 256 103.4ZM263.017 363.459C198.081 367.543 144.457 314.024 148.541 248.983C151.893 195.358 195.358 151.893 248.983 148.541C313.919 144.457 367.543 197.976 363.459 263.017C360.002 316.537 316.537 360.002 263.017 363.459ZM259.77 313.814C224.789 316.014 195.882 287.211 198.186 252.23C199.966 223.323 223.427 199.966 252.334 198.081C287.316 195.882 316.223 224.684 313.919 259.666C312.034 288.678 288.573 312.034 259.77 313.814Z" fill="#D1121A"/>
</g>
<defs>
<clipPath id="clip0_1_2">
<rect width="512" height="512" fill="white"/>
</clipPath>
</defs>
</svg>
