<svg width="38" height="30" viewBox="0 0 38 30" fill="none" xmlns="http://www.w3.org/2000/svg">
<path d="M6.12843 22.5616C6.35604 22.3339 6.669 22.2012 7.00093 22.2012H37.1024C37.6525 22.2012 37.9275 22.865 37.5387 23.2539L31.5923 29.2002C31.3647 29.4278 31.0518 29.5606 30.7198 29.5606H0.618357C0.0682981 29.5606 -0.206731 28.8967 0.182103 28.5079L6.12843 22.5616Z" fill="white"/>
<path d="M6.12843 0.360383C6.36552 0.132773 6.67848 0 7.00093 0H37.1024C37.6525 0 37.9275 0.663864 37.5387 1.0527L31.5923 6.99902C31.3647 7.22663 31.0518 7.3594 30.7198 7.3594H0.618357C0.0682981 7.3594 -0.206731 6.69554 0.182103 6.30671L6.12843 0.360383Z" fill="white"/>
<path d="M31.5923 11.3897C31.3647 11.1621 31.0518 11.0293 30.7198 11.0293H0.618357C0.0682981 11.0293 -0.206731 11.6932 0.182103 12.082L6.12843 18.0283C6.35604 18.2559 6.669 18.3887 7.00093 18.3887H37.1024C37.6525 18.3887 37.9275 17.7248 37.5387 17.336L31.5923 11.3897Z" fill="white"/>
</svg>
